PathFileType  4	(X/Y/Z) C:\Users\antoi\Documents\MyRepositories\mobilecap\ResultsAnalysis
DataRate	CameraRate	NumFrames	NumMarkers	Units	OrigDataRate	OrigDataStartFrame	OrigNumFrames
100.0	100.0	4	51	mm	100.0	531	1414
Frame#	Time	r_knee			r_shank_antsup			r_ankle			r_calc			r_5meta			r_toe			L_knee			L_shank_antsup			L_ankle			L_calc			L_5meta			L_toe			r_sh2			r_sh3			r_sh4			L_sh2			L_sh3			r_thigh1			r_thigh2			r_thigh3			r_thigh4			r_thigh5			L_thigh1			L_thigh2			L_thigh3			L_thigh4			r.ASIS			r.PSIS			L.ASIS			L.PSIS			C7			R_Shoulder			L_Shoulder			R_Sternum			L_Sternum			R_humerus			R_elbow_med			R_elbow_lat			R_forearm			R_wrist_radius			R_wrist_ulna			L_humerus			L_elbow_med			L_elbow_lat			L_forearm			L_wrist_radius			L_wrist_ulna			R_HJC			L_HJC			R_HJC_reg			L_HJC_reg			
		X1	Y1	Z1	X2	Y2	Z2	X3	Y3	Z3	X4	Y4	Z4	X5	Y5	Z5	X6	Y6	Z6	X7	Y7	Z7	X8	Y8	Z8	X9	Y9	Z9	X10	Y10	Z10	X11	Y11	Z11	X12	Y12	Z12	X13	Y13	Z13	X14	Y14	Z14	X15	Y15	Z15	X16	Y16	Z16	X17	Y17	Z17	X18	Y18	Z18	X19	Y19	Z19	X20	Y20	Z20	X21	Y21	Z21	X22	Y22	Z22	X23	Y23	Z23	X24	Y24	Z24	X25	Y25	Z25	X26	Y26	Z26	X27	Y27	Z27	X28	Y28	Z28	X29	Y29	Z29	X30	Y30	Z30	X31	Y31	Z31	X32	Y32	Z32	X33	Y33	Z33	X34	Y34	Z34	X35	Y35	Z35	X36	Y36	Z36	X37	Y37	Z37	X38	Y38	Z38	X39	Y39	Z39	X40	Y40	Z40	X41	Y41	Z41	X42	Y42	Z42	X43	Y43	Z43	X44	Y44	Z44	X45	Y45	Z45	X46	Y46	Z46	X47	Y47	Z47	X48	Y48	Z48	X49	Y49	Z49	X50	Y50	Z50	X51	Y51	Z51	

531	5.30000000	-146.06097	521.34656	-387.37452	-126.57528	392.37730	-402.60816	-294.05974	97.37659	-444.74964	-352.71510	66.58197	-508.31508	-182.15708	36.48135	-371.92772	-128.05322	58.07222	-434.84813	-202.38255	538.08476	-871.43588	-158.30803	430.55526	-884.58761	-288.50472	100.56255	-902.95145	-346.63024	69.71431	-850.14908	-154.33424	34.76928	-955.57301	-115.58421	58.76492	-890.33402	-151.63921	282.92190	-435.22731	-194.19871	393.87519	-365.18510	-212.40799	278.34033	-377.36133	-245.15658	447.91181	-901.68973	-249.35177	328.58934	-932.59657	-151.65856	777.08415	-400.09860	-103.65896	674.78886	-407.81090	-123.89362	635.97679	-356.22167	-230.28513	733.26284	-330.18455	-178.08870	627.13028	-346.55094	-327.08577	750.08163	-836.30050	-265.40631	630.33311	-866.31550	-226.37439	797.97822	-820.09781	-166.06669	679.32324	-853.22841	-231.10965	960.46078	-432.31894	-414.79599	1057.78845	-509.95543	-242.63869	957.32512	-701.22605	-417.55349	1056.20580	-608.88531	-172.27997	1491.17460	-541.09339	-92.05429	1393.66863	-365.96445	-96.29771	1428.87914	-713.05100	-56.34846	1376.76858	-526.00499	-61.26920	1376.27690	-568.08370	-49.56796	1245.57957	-299.10120	-55.76164	1008.92239	-329.29006	-23.32443	1049.44958	-249.67507	93.55586	1130.06907	-339.27782	181.75480	1169.28389	-404.49396	208.38714	1136.01549	-401.86187	-69.81919	1273.77575	-797.51169	-117.96430	1044.93919	-789.40410	-65.19178	1080.24147	-850.99419	33.72558	1148.60944	-737.04065	131.19949	1176.11903	-681.45548	153.44377	1136.13574	-694.78063	-334.24930	910.48874	-464.36305	-344.72315	897.62414	-677.10999	-329.72977	908.08390	-467.19534	-334.67795	905.24345	-644.75700	
532	5.31000000	-147.75875	522.12779	-387.89397	-128.09954	393.30168	-402.84486	-294.15659	97.36959	-444.71019	-352.73117	66.61606	-508.27494	-182.14483	36.39448	-371.94475	-128.05728	58.12835	-434.77720	-204.03537	538.64532	-870.24727	-159.90903	431.27368	-883.59038	-288.49233	100.53721	-902.79108	-346.56420	69.75786	-850.15204	-154.30674	34.81301	-955.53139	-115.56568	58.82669	-890.27418	-152.59014	283.74014	-435.17253	-195.76754	394.41352	-365.48167	-213.74945	279.28521	-377.10280	-246.83244	448.25585	-900.55500	-250.48585	328.91496	-931.80193	-150.98785	777.98628	-400.00110	-104.04185	675.22868	-408.22537	-124.70938	636.48689	-356.66873	-230.19166	734.82367	-330.52256	-179.20414	628.36825	-346.95467	-326.62300	751.92935	-835.80549	-266.19755	631.54845	-865.41558	-225.50850	798.61544	-818.52855	-166.40945	679.28326	-852.13952	-229.48587	963.56007	-432.41678	-413.67855	1060.09650	-509.96576	-240.67636	960.06630	-700.31779	-416.32208	1058.56310	-609.00755	-173.70504	1495.01994	-540.97746	-93.29415	1397.75037	-365.91601	-97.34563	1433.00740	-713.07340	-57.17591	1381.11294	-525.83790	-62.12209	1380.62085	-567.87333	-50.77541	1249.47249	-298.71335	-57.05891	1012.79446	-328.87898	-24.67631	1053.32735	-249.33707	92.36446	1133.80536	-338.95717	180.55606	1172.87420	-404.33587	207.09830	1139.56821	-401.57147	-71.03938	1277.67061	-797.49611	-119.64772	1048.80279	-789.07690	-66.79160	1084.15097	-850.89422	32.28747	1152.33160	-736.89737	129.79742	1179.68843	-681.41323	151.97582	1139.73706	-694.89190	-332.52837	913.20946	-464.08450	-342.63429	900.03799	-676.82639	-327.71386	910.77229	-467.26585	-332.43605	908.03280	-644.16776	
533	5.32000000	-149.50261	522.96545	-388.49680	-129.61168	394.27818	-403.07946	-294.25651	97.38434	-444.66294	-352.75488	66.62903	-508.22603	-182.13600	36.36250	-371.88103	-128.07404	58.17849	-434.70808	-205.72150	539.15708	-869.12988	-161.52025	431.86632	-882.57390	-288.50515	100.50476	-902.74763	-346.60857	69.79910	-850.21876	-154.29719	34.85184	-955.51911	-115.55204	58.86822	-890.23900	-153.58051	284.48705	-435.22168	-197.32356	395.05308	-365.76145	-215.03419	280.25146	-377.03516	-248.48689	448.56600	-899.48193	-251.57941	329.37658	-931.20815	-150.37123	778.90687	-400.07177	-104.38220	675.63035	-408.49005	-125.54083	637.05761	-357.01609	-230.11988	736.33696	-331.07724	-180.13425	629.49582	-347.28481	-326.27061	753.70528	-835.01134	-266.91875	632.84206	-864.67857	-224.56879	799.51109	-817.45031	-166.73803	679.24619	-851.16316	-227.88263	966.59298	-432.53101	-412.51628	1062.36236	-510.12801	-238.30489	961.68980	-697.66729	-415.02730	1060.91783	-609.29534	-175.08718	1498.79710	-540.89915	-94.55807	1401.74893	-365.65255	-98.38431	1437.07524	-713.11014	-58.02537	1385.34639	-525.69155	-62.94050	1384.85283	-567.70287	-51.98211	1253.27209	-298.32092	-58.43884	1016.78588	-328.54889	-26.01723	1057.12002	-249.01357	91.11700	1137.45419	-338.59407	179.30090	1176.47426	-404.01327	205.76638	1143.13848	-401.24581	-72.24189	1281.34744	-797.45278	-121.21144	1052.64091	-788.97551	-68.31165	1087.90536	-850.73624	30.94221	1155.94766	-736.69936	128.47384	1183.20248	-681.28343	150.60003	1143.24858	-694.89354	-331.10906	916.04821	-463.06878	-340.39599	901.71306	-675.77208	-325.37082	913.33996	-467.10288	-329.80520	910.78901	-642.18557	
534	5.33000000	-151.26813	523.84706	-388.96141	-131.17335	395.18907	-403.31655	-294.36088	97.41845	-444.59995	-352.79000	66.63507	-508.19154	-182.12008	36.42458	-371.75154	-128.08883	58.20163	-434.64452	-207.41778	539.59686	-868.04495	-163.15163	432.37613	-881.51054	-288.56146	100.52709	-902.73083	-346.71928	69.80157	-850.23660	-154.29944	34.85874	-955.52686	-115.54605	58.87995	-890.23314	-154.63055	285.13383	-435.29687	-198.89961	395.88172	-365.86981	-215.86314	280.54304	-377.52000	-250.13171	448.82541	-898.59850	-252.67339	329.80194	-930.62074	-149.79696	779.78838	-400.40241	-104.78107	675.95936	-408.70743	-126.41500	637.59367	-357.27260	-229.98140	737.85630	-331.56988	-181.10764	630.58869	-347.70016	-325.88901	755.49047	-834.31655	-267.66883	633.95966	-863.69501	-223.56856	800.46315	-816.97996	-167.08485	679.36009	-850.60363	-226.27588	969.55143	-432.61124	-411.29867	1064.64758	-510.45427	-236.15383	963.74651	-696.18759	-413.69604	1063.24805	-609.53165	-176.42134	1502.45051	-540.78427	-95.81391	1405.68698	-365.15978	-99.46425	1440.96522	-712.94190	-58.89230	1389.45192	-525.34474	-63.72297	1388.99624	-567.50988	-53.15907	1256.99649	-298.02201	-59.73885	1020.59194	-328.35602	-27.34132	1060.74601	-248.81173	89.77327	1141.00204	-338.28703	178.01651	1179.96933	-403.65528	204.52353	1146.63795	-400.92953	-73.38085	1284.92306	-797.37603	-122.63951	1056.48085	-789.07941	-69.74435	1091.51180	-850.66703	29.61966	1159.46855	-736.58367	127.09329	1186.64959	-681.00139	149.23939	1146.67898	-694.69309	-329.56805	918.77499	-462.54876	-338.27415	903.69720	-675.23039	-323.26677	915.87033	-467.05577	-327.47840	913.41214	-641.11113	
